<svg xmlns="http://www.w3.org/2000/svg" width="23" height="16.187" viewBox="0 0 23 16.187"><g transform="translate(-402 -5833.917)"><g transform="translate(402 5788)"><path d="M22.1,47.306c-.83-.987-2.363-1.389-5.29-1.389H6.187c-2.994,0-4.553.429-5.38,1.479C0,48.421,0,49.93,0,52.019V56c0,4.047.957,6.1,6.187,6.1H16.813c2.539,0,3.945-.355,4.855-1.226C22.6,59.984,23,58.526,23,56V52.019C23,49.816,22.938,48.3,22.1,47.306ZM14.766,54.56,9.941,57.082a.742.742,0,0,1-1.086-.658V51.4a.742.742,0,0,1,1.084-.658l4.825,2.506a.742.742,0,0,1,0,1.316Z" fill="none"/></g></g></svg>