<svg xmlns="http://www.w3.org/2000/svg" width="18" height="18" viewBox="0 0 18 18"><g transform="translate(-344 -5833.417)"><g transform="translate(344 5833.417)"><path d="M10.323,5.838A4.476,4.476,0,1,0,14.8,10.314a4.476,4.476,0,0,0-4.477-4.476Zm0,7.382a2.906,2.906,0,1,1,2.906-2.906A2.9,2.9,0,0,1,10.323,13.22Z" transform="translate(-1.32 -1.318)" fill="none"/><path d="M12.711.057C11.055-.02,6.953-.016,5.3.057A5.379,5.379,0,0,0,1.519,1.513C-.212,3.244.009,5.576.009,9c0,3.5-.2,5.779,1.51,7.484,1.738,1.737,4.1,1.51,7.484,1.51,3.468,0,4.665,0,5.891-.472,1.667-.647,2.926-2.137,3.049-4.814.078-1.657.073-5.758,0-7.415C17.794,2.129,16.1.213,12.711.057Zm2.621,15.279c-1.135,1.135-2.709,1.033-6.351,1.033-3.75,0-5.254.055-6.351-1.045C1.366,14.067,1.6,12.047,1.6,8.985c0-4.144-.425-7.128,3.734-7.341C6.284,1.61,6.565,1.6,8.971,1.6L9,1.622c4,0,7.132-.418,7.321,3.739.043.949.052,1.234.052,3.635,0,3.706.07,5.219-1.045,6.34Z" transform="translate(0 0)" fill="none"/><circle cx="1.114" cy="1.114" r="1.114" transform="translate(12.669 3.103)" fill="none"/></g></g></svg>