<svg xmlns="http://www.w3.org/2000/svg" width="15.43" height="14.751" viewBox="0 0 15.43 14.751"><g transform="translate(-406 -5833.728)"><path d="M-942.878-8338.646v-5.325c0-1.337-.478-2.249-1.675-2.249a1.81,1.81,0,0,0-1.7,1.209,2.251,2.251,0,0,0-.109.808v5.558h-3.308v-9.952h3.308v1.442a4.146,4.146,0,0,1,2.981-1.675c2.176,0,3.807,1.422,3.807,4.478v5.707Zm-11.927,0v-9.954h3.308v9.954Zm1.633-11.312a1.711,1.711,0,0,1-1.828-1.717,1.727,1.727,0,0,1,1.87-1.722,1.723,1.723,0,0,1,1.851,1.722,1.725,1.725,0,0,1-1.872,1.717Z" transform="translate(1361 14187.125)" fill="none"/></g></svg>