<svg xmlns="http://www.w3.org/2000/svg" width="72.024" height="49.133" viewBox="0 0 72.024 49.133">
  <g id="icon-quote" transform="translate(0 -81.365)">
    <path id="Path_16" data-name="Path 16" d="M30.535,107.99A21.432,21.432,0,0,1,9.22,127.333l-3.844,0a1.547,1.547,0,1,0,0,3.095l3.844,0A24.524,24.524,0,0,0,33.73,105.9s0-7.826,0-7.833a16.826,16.826,0,1,0-3.195,9.92Z" transform="translate(0 0)" fill="#334172" fill-rule="evenodd"/>
    <path id="Path_17" data-name="Path 17" d="M302.765,107.98a21.432,21.432,0,0,1-21.322,19.42l-3.844,0a1.547,1.547,0,1,0,0,3.095l3.844,0a24.524,24.524,0,0,0,24.507-24.524V98.158a16.826,16.826,0,1,0-3.188,9.822Z" transform="translate(-233.929)" fill="#334172" fill-rule="evenodd"/>
  </g>
</svg>
