<svg xmlns="http://www.w3.org/2000/svg" width="14.452" height="16" viewBox="0 0 14.452 16"><path d="M27.161,32.452H31.29V34H27.161Zm9.29-3.355v1.032a.774.774,0,0,1-.774.774h-12.9A.774.774,0,0,1,22,30.129V29.1a2.843,2.843,0,0,1,2.323-2.792V24.452a4.389,4.389,0,0,1,4.129-4.374V18H30v2.078a4.389,4.389,0,0,1,4.129,4.374v1.853A2.843,2.843,0,0,1,36.452,29.1Zm-1.548,0a1.292,1.292,0,0,0-1.29-1.29h-.258a.774.774,0,0,1-.774-.774V24.452a2.842,2.842,0,0,0-2.839-2.839H28.71a2.842,2.842,0,0,0-2.839,2.839v2.581a.774.774,0,0,1-.774.774h-.258a1.292,1.292,0,0,0-1.29,1.29v.258H34.9Z" transform="translate(-22 -18)"/></svg>